<svg viewBox="0 0 100 100" xmlns="http://www.w3.org/2000/svg">
  <circle cx="50" cy="50" r="48" fill="#24292e"/>
  <path d="M50 10c-22.1 0-40 17.9-40 40 0 17.7 11.4 32.6 27.3 37.9 2 0.4 2.7-0.9 2.7-1.9 0-1-0.1-4.2-0.1-7.6-10.1 1.9-12.7-2.5-13.5-4.7-0.5-1.2-2.4-4.7-4-5.7-1.4-0.7-3.3-2.6-0.1-2.6 3.1-0.1 5.3 2.8 6 4 3.5 5.9 9.1 4.2 11.4 3.2 0.3-2.6 1.4-4.3 2.5-5.2-8.7-1-17.8-4.4-17.8-19.4 0-4.3 1.5-7.8 4-10.6-0.4-1-1.8-5 0.4-10.4 0 0 3.3-1.1 10.8 4 3.1-0.9 6.5-1.3 9.8-1.3 3.3 0 6.7 0.4 9.8 1.3 7.5-5.1 10.8-4 10.8-4 2.1 5.4 0.8 9.4 0.4 10.4 2.5 2.7 4 6.2 4 10.6 0 15.1-9.2 18.4-17.9 19.4 1.4 1.2 2.6 3.6 2.6 7.3 0 5.2-0.1 9.5-0.1 10.8 0 1.1 0.7 2.3 2.7 1.9C78.6 82.6 90 67.7 90 50c0-22.1-17.9-40-40-40z" fill="white"/>
</svg>