<svg width="512" height="512" viewBox="0 0 512 512" fill="none" xmlns="http://www.w3.org/2000/svg">
  <!-- Background Circle -->
  <circle cx="256" cy="256" r="240" fill="url(#bg-gradient)" opacity="0.1"/>
  
  <!-- Main Hexagon -->
  <path d="M256 80L384 176V336L256 432L128 336V176L256 80Z" fill="url(#main-gradient)" opacity="0.9"/>
  
  <!-- Inner Hexagon -->
  <path d="M256 140L334 206V306L256 372L178 306V206L256 140Z" fill="url(#inner-gradient)"/>
  
  <!-- Center Circle with G -->
  <circle cx="256" cy="256" r="60" fill="white"/>
  <text x="256" y="276" font-family="Arial, sans-serif" font-size="64" font-weight="bold" text-anchor="middle" fill="url(#text-gradient)">G</text>
  
  <!-- Decorative Nodes -->
  <circle cx="256" cy="80" r="12" fill="#60A5FA"/>
  <circle cx="384" cy="176" r="12" fill="#A78BFA"/>
  <circle cx="384" cy="336" r="12" fill="#F472B6"/>
  <circle cx="256" cy="432" r="12" fill="#60A5FA"/>
  <circle cx="128" cy="336" r="12" fill="#A78BFA"/>
  <circle cx="128" cy="176" r="12" fill="#F472B6"/>
  
  <!-- Connection Lines -->
  <path d="M256 92V128M256 384V420" stroke="url(#line-gradient)" stroke-width="2" opacity="0.5"/>
  <path d="M372 164L344 184M168 328L140 348" stroke="url(#line-gradient)" stroke-width="2" opacity="0.5"/>
  <path d="M372 348L344 328M168 184L140 164" stroke="url(#line-gradient)" stroke-width="2" opacity="0.5"/>
  
  <defs>
    <!-- Background Gradient -->
    <radialGradient id="bg-gradient" cx="256" cy="256" r="240" gradientUnits="userSpaceOnUse">
      <stop stop-color="#3B82F6"/>
      <stop offset="1" stop-color="#8B5CF6" stop-opacity="0.3"/>
    </radialGradient>
    
    <!-- Main Gradient -->
    <linearGradient id="main-gradient" x1="128" y1="80" x2="384" y2="432" gradientUnits="userSpaceOnUse">
      <stop stop-color="#3B82F6"/>
      <stop offset="0.5" stop-color="#8B5CF6"/>
      <stop offset="1" stop-color="#EC4899"/>
    </linearGradient>
    
    <!-- Inner Gradient -->
    <linearGradient id="inner-gradient" x1="178" y1="140" x2="334" y2="372" gradientUnits="userSpaceOnUse">
      <stop stop-color="#60A5FA" stop-opacity="0.8"/>
      <stop offset="1" stop-color="#A78BFA" stop-opacity="0.6"/>
    </linearGradient>
    
    <!-- Text Gradient -->
    <linearGradient id="text-gradient" x1="226" y1="226" x2="286" y2="286" gradientUnits="userSpaceOnUse">
      <stop stop-color="#3B82F6"/>
      <stop offset="1" stop-color="#8B5CF6"/>
    </linearGradient>
    
    <!-- Line Gradient -->
    <linearGradient id="line-gradient" x1="256" y1="80" x2="256" y2="432" gradientUnits="userSpaceOnUse">
      <stop stop-color="#60A5FA"/>
      <stop offset="1" stop-color="#A78BFA"/>
    </linearGradient>
  </defs>
</svg>